<svg xmlns="http://www.w3.org/2000/svg" xmlns:xlink="http://www.w3.org/1999/xlink" width="3000" zoomAndPan="magnify" viewBox="0 0 2250 2250.000011" height="3000" preserveAspectRatio="xMidYMid meet" version="1.0"><defs><clipPath id="cc85ecc299"><path d="M 0.5 0 L 2249.5 0 L 2249.5 2249 L 0.5 2249 Z M 0.5 0 " clip-rule="nonzero"/></clipPath></defs><g clip-path="url(#cc85ecc299)"><path fill="#ffffff" d="M 0.5 0 L 2249.5 0 L 2249.5 2249 L 0.5 2249 Z M 0.5 0 " fill-opacity="1" fill-rule="nonzero"/><path fill="#ffffff" d="M 0.5 0 L 2249.5 0 L 2249.5 2249 L 0.5 2249 Z M 0.5 0 " fill-opacity="1" fill-rule="nonzero"/><rect x="-225" width="2700" fill="#ffffff" y="-225.000001" height="2700.000013" fill-opacity="1"/><rect x="-225" width="2700" fill="#ff9666" y="-225.000001" height="2700.000013" fill-opacity="1"/><rect x="-225" width="2700" fill="#ffffff" y="-225.000001" height="2700.000013" fill-opacity="1"/><rect x="-225" width="2700" fill="#ff9666" y="-225.000001" height="2700.000013" fill-opacity="1"/></g><path fill="#ffffff" d="M 737.003906 1551.15625 L 904.179688 1551.15625 L 672.308594 1180.191406 C 755.296875 1157.019531 860.242188 1097.226562 860.242188 945.910156 C 860.242188 696.992188 574.707031 696.992188 574.707031 696.992188 L 290.390625 696.992188 L 290.390625 839.742188 L 425.828125 1053.292969 L 290.390625 1053.292969 L 290.390625 1551.15625 L 433.144531 1551.15625 L 433.144531 1194.855469 L 514.917969 1194.855469 Z M 593.003906 1052.074219 L 460.007812 839.742188 L 574.707031 839.742188 C 574.707031 839.742188 717.460938 839.742188 717.460938 945.910156 C 717.460938 1030.121094 630.839844 1048.414062 593.003906 1052.074219 Z M 593.003906 1052.074219 " fill-opacity="1" fill-rule="nonzero"/><path fill="#ffffff" d="M 1960.832031 1551.15625 L 1960.832031 695.769531 L 1815.613281 695.769531 L 1504.464844 1360.808594 L 1179.871094 695.769531 L 1034.679688 695.769531 L 1034.679688 1551.15625 L 1177.433594 1551.15625 L 1177.433594 1015.484375 L 1438.574219 1551.15625 L 1572.792969 1551.15625 L 1818.050781 1026.460938 L 1818.050781 1551.15625 Z M 1960.832031 1551.15625 " fill-opacity="1" fill-rule="nonzero"/></svg>